<svg width="14" height="13" viewBox="0 0 14 13" fill="none" xmlns="http://www.w3.org/2000/svg">
<path d="M13.45 4.52891C13.0986 3.6972 12.5892 2.94157 11.95 2.30391C11.3123 1.6647 10.5567 1.15529 9.725 0.803906C8.86094 0.438281 7.94531 0.253906 7 0.253906C6.05469 0.253906 5.13906 0.438281 4.275 0.803906C3.4433 1.15529 2.68767 1.6647 2.05 2.30391C1.41079 2.94157 0.901382 3.6972 0.55 4.52891C0.184375 5.39297 0 6.30859 0 7.25391C0 9.32734 0.910937 11.2805 2.49844 12.6148L2.525 12.6367C2.61563 12.7117 2.72969 12.7539 2.84687 12.7539H11.1547C11.2719 12.7539 11.3859 12.7117 11.4766 12.6367L11.5031 12.6148C13.0891 11.2805 14 9.32734 14 7.25391C14 6.30859 13.8141 5.39297 13.45 4.52891ZM10.8969 11.5664H3.10313C2.49937 11.022 2.01682 10.3568 1.68681 9.61383C1.35679 8.87088 1.18667 8.06685 1.1875 7.25391C1.1875 5.70078 1.79219 4.24141 2.89062 3.14453C3.98906 2.04609 5.44844 1.44141 7 1.44141C8.55313 1.44141 10.0125 2.04609 11.1094 3.14453C12.2078 4.24297 12.8125 5.70234 12.8125 7.25391C12.8125 8.90391 12.1172 10.4648 10.8969 11.5664ZM8.74219 5.08984C8.71869 5.06658 8.68697 5.05353 8.65391 5.05353C8.62084 5.05353 8.58912 5.06658 8.56563 5.08984L7.24531 6.41016C6.95312 6.33203 6.62969 6.40703 6.4 6.63672C6.31865 6.71792 6.2541 6.81437 6.21007 6.92054C6.16603 7.02671 6.14336 7.14053 6.14336 7.25547C6.14336 7.37041 6.16603 7.48423 6.21007 7.5904C6.2541 7.69657 6.31865 7.79302 6.4 7.87422C6.4812 7.95557 6.57765 8.02011 6.68382 8.06415C6.78999 8.10819 6.90381 8.13086 7.01875 8.13086C7.13369 8.13086 7.24751 8.10819 7.35368 8.06415C7.45985 8.02011 7.5563 7.95557 7.6375 7.87422C7.74632 7.76573 7.82458 7.63043 7.86436 7.482C7.90414 7.33358 7.90404 7.17728 7.86406 7.02891L9.18437 5.70859C9.23281 5.66016 9.23281 5.58047 9.18437 5.53203L8.74219 5.08984ZM6.65625 3.50391H7.34375C7.4125 3.50391 7.46875 3.44766 7.46875 3.37891V2.12891C7.46875 2.06016 7.4125 2.00391 7.34375 2.00391H6.65625C6.5875 2.00391 6.53125 2.06016 6.53125 2.12891V3.37891C6.53125 3.44766 6.5875 3.50391 6.65625 3.50391ZM10.7188 6.91016V7.59766C10.7188 7.66641 10.775 7.72266 10.8438 7.72266H12.0938C12.1625 7.72266 12.2188 7.66641 12.2188 7.59766V6.91016C12.2188 6.84141 12.1625 6.78516 12.0938 6.78516H10.8438C10.775 6.78516 10.7188 6.84141 10.7188 6.91016ZM10.9172 3.82891L10.4312 3.34297C10.4078 3.31971 10.376 3.30666 10.343 3.30666C10.3099 3.30666 10.2782 3.31971 10.2547 3.34297L9.37031 4.22734C9.34705 4.25084 9.334 4.28256 9.334 4.31563C9.334 4.34869 9.34705 4.38041 9.37031 4.40391L9.85625 4.88984C9.90469 4.93828 9.98438 4.93828 10.0328 4.88984L10.9172 4.00547C10.9656 3.95703 10.9656 3.87734 10.9172 3.82891ZM3.75156 3.34297C3.72807 3.31971 3.69634 3.30666 3.66328 3.30666C3.63022 3.30666 3.59849 3.31971 3.575 3.34297L3.08906 3.82891C3.0658 3.8524 3.05275 3.88413 3.05275 3.91719C3.05275 3.95025 3.0658 3.98198 3.08906 4.00547L3.97344 4.88984C4.02187 4.93828 4.10156 4.93828 4.15 4.88984L4.63594 4.40391C4.68438 4.35547 4.68438 4.27578 4.63594 4.22734L3.75156 3.34297ZM3.09375 6.78516H1.84375C1.775 6.78516 1.71875 6.84141 1.71875 6.91016V7.59766C1.71875 7.66641 1.775 7.72266 1.84375 7.72266H3.09375C3.1625 7.72266 3.21875 7.66641 3.21875 7.59766V6.91016C3.21875 6.84141 3.1625 6.78516 3.09375 6.78516Z" fill="black" fillOpacity="0.85"/>
</svg>
