<svg width="20" height="20" viewBox="0 0 20 20" fill="none" xmlns="http://www.w3.org/2000/svg">
<path d="M19.2831 6.77462L13.3323 5.90977L10.6722 0.516805C10.5995 0.369149 10.48 0.249618 10.3323 0.176962C9.96199 -0.00585069 9.51199 0.146493 9.32684 0.516805L6.66668 5.90977L0.715901 6.77462C0.551838 6.79805 0.401838 6.8754 0.286995 6.99259C0.148155 7.13529 0.0716479 7.32727 0.0742847 7.52636C0.0769216 7.72544 0.158487 7.91533 0.301057 8.0543L4.60653 12.252L3.58934 18.1793C3.56549 18.3172 3.58074 18.459 3.63338 18.5886C3.68602 18.7183 3.77394 18.8306 3.88716 18.9128C4.00038 18.9951 4.13437 19.0439 4.27395 19.0539C4.41352 19.0638 4.5531 19.0345 4.67684 18.9691L9.99949 16.1707L15.3222 18.9691C15.4675 19.0465 15.6362 19.0723 15.7979 19.0441C16.2057 18.9738 16.48 18.5871 16.4097 18.1793L15.3925 12.252L19.6979 8.0543C19.8151 7.93946 19.8925 7.78946 19.9159 7.6254C19.9792 7.21524 19.6932 6.83555 19.2831 6.77462Z" fill="#FADB14"/>
</svg>
