<svg width="20" height="31" viewBox="0 0 20 31" fill="none" xmlns="http://www.w3.org/2000/svg">
<mask id="mask0_1356_25313" style="mask-type:alpha" maskUnits="userSpaceOnUse" x="0" y="5" width="20" height="20">
<path d="M19.2831 11.7746L13.3323 10.9098L10.6722 5.51681C10.5995 5.36915 10.48 5.24962 10.3323 5.17696C9.96199 4.99415 9.51199 5.14649 9.32684 5.51681L6.66668 10.9098L0.715901 11.7746C0.551838 11.7981 0.401838 11.8754 0.286995 11.9926C0.148155 12.1353 0.0716479 12.3273 0.0742847 12.5264C0.0769216 12.7254 0.158487 12.9153 0.301057 13.0543L4.60653 17.252L3.58934 23.1793C3.56549 23.3172 3.58074 23.459 3.63338 23.5886C3.68602 23.7183 3.77394 23.8306 3.88716 23.9128C4.00038 23.9951 4.13437 24.0439 4.27395 24.0539C4.41352 24.0638 4.5531 24.0345 4.67684 23.9691L9.99949 21.1707L15.3222 23.9691C15.4675 24.0465 15.6362 24.0723 15.7979 24.0441C16.2057 23.9738 16.48 23.5871 16.4097 23.1793L15.3925 17.252L19.6979 13.0543C19.8151 12.9395 19.8925 12.7895 19.9159 12.6254C19.9792 12.2152 19.6932 11.8356 19.2831 11.7746Z" fill="#C4C4C4"/>
</mask>
<g mask="url(#mask0_1356_25313)">
<path d="M-2 0H10V31H-2V0Z" fill="#FADB14"/>
<path d="M10 0H22V31H10V0Z" fill="black" fillOpacity="0.06"/>
</g>
</svg>
