<svg width="425" height="450" viewBox="0 0 425 450" fill="none" xmlns="http://www.w3.org/2000/svg">
<path fillRule="evenodd" clipRule="evenodd" d="M0 196.102V192.864C0 86.3493 94.347 0 210.731 0H214.269C330.651 0 425 86.3493 425 192.864V196.102C425 302.618 330.651 388.966 214.269 388.966H210.731C94.347 388.966 0 302.618 0 196.102Z" fill="#E4EBF7"/>
<path fillRule="evenodd" clipRule="evenodd" d="M67.0458 202.098C66.8618 203.768 66.3202 205.389 65.4517 206.868C64.5832 208.347 63.4049 209.655 61.9841 210.718C60.5633 211.78 58.9279 212.576 57.1711 213.059C55.4143 213.543 53.5706 213.705 51.7452 213.537C49.9199 213.369 48.1486 212.873 46.5326 212.078C44.9166 211.283 43.4875 210.205 42.3268 208.905C41.1662 207.604 40.2968 206.107 39.7682 204.5C39.2396 202.892 39.0622 201.204 39.2462 199.534C39.621 196.163 41.4429 193.065 44.3115 190.923C47.18 188.78 50.8607 187.768 54.5446 188.107C58.2285 188.447 61.6144 190.112 63.9581 192.735C66.3019 195.358 67.4119 198.726 67.0441 202.098" fill="white"/>
<path d="M81.5919 226.304L60.2422 242.969M62.353 207.439L80.0461 216.62L62.353 207.439Z" stroke="white" stroke-width="2"/>
<path fillRule="evenodd" clipRule="evenodd" d="M67.2491 246.147C67.133 247.299 66.769 248.417 66.1781 249.439C65.5872 250.461 64.781 251.365 63.8061 252.1C62.8312 252.835 61.7069 253.387 60.4981 253.722C59.2892 254.057 58.0198 254.17 56.763 254.054C55.5062 253.938 54.287 253.596 53.1757 253.046C52.0643 252.497 51.0829 251.751 50.288 250.853C49.4931 249.954 48.9005 248.921 48.5444 247.812C48.1882 246.702 48.0756 245.54 48.213 244.39C48.4875 242.095 49.7418 239.992 51.7027 238.538C53.6636 237.085 56.1724 236.4 58.6828 236.632C61.1932 236.863 63.502 237.993 65.1064 239.776C66.7108 241.558 67.4809 243.848 67.2491 246.147ZM97.1478 221.265C97.0265 222.421 96.6567 223.544 96.0599 224.569C95.4631 225.594 94.6508 226.501 93.6699 227.238C92.6889 227.975 91.5586 228.527 90.3438 228.863C89.1289 229.199 87.8535 229.312 86.5908 229.196C85.3281 229.079 84.103 228.736 82.9858 228.185C81.8686 227.634 80.8813 226.886 80.0806 225.985C79.28 225.084 78.6818 224.047 78.3203 222.933C77.9588 221.82 77.8412 220.652 77.9743 219.497C78.2354 217.174 79.493 215.04 81.4712 213.564C83.4493 212.088 85.9864 211.391 88.5257 211.625C91.0649 211.86 93.3988 213.006 95.0153 214.814C96.6318 216.621 97.3987 218.942 97.1478 221.266V221.265ZM167.084 41.4803L217.422 41.4603C218.439 41.4599 219.446 41.2762 220.385 40.9197C221.324 40.5631 222.178 40.0407 222.897 39.3823C223.615 38.7238 224.186 37.9423 224.574 37.0822C224.963 36.2222 225.163 35.3004 225.163 34.3697C225.162 33.4389 224.961 32.5174 224.572 31.6576C224.182 30.7979 223.611 30.0168 222.892 29.3589C222.173 28.701 221.319 28.1793 220.379 27.8235C219.439 27.4677 218.432 27.2848 217.415 27.2852L167.077 27.3051C165.051 27.3445 163.122 28.1089 161.705 29.4345C160.288 30.76 159.495 32.5411 159.495 34.3957C159.496 36.2503 160.291 38.0308 161.71 39.3552C163.128 40.6796 165.058 41.4425 167.084 41.4803ZM186.338 69.8092L236.674 69.7892C237.705 69.8084 238.729 69.6392 239.687 69.2915C240.645 68.9437 241.518 68.4244 242.254 67.7641C242.99 67.1037 243.575 66.3155 243.974 65.4457C244.373 64.5758 244.578 63.6419 244.578 62.6985C244.577 61.7551 244.371 60.8213 243.971 59.9518C243.571 59.0823 242.986 58.2946 242.249 57.6348C241.513 56.975 240.639 56.4564 239.681 56.1094C238.722 55.7624 237.698 55.594 236.667 55.614L186.329 55.634C184.275 55.6348 182.306 56.3823 180.854 57.7121C179.403 59.0418 178.587 60.8449 178.588 62.7247C178.589 64.6044 179.406 66.4068 180.859 67.7354C182.312 69.064 184.282 69.81 186.336 69.8092" fill="white"/>
<path fillRule="evenodd" clipRule="evenodd" d="M190.343 41.4611V41.458L216.985 41.4473C214.931 41.4483 212.961 42.196 211.51 43.5259C210.058 44.8558 209.243 46.6589 209.245 48.5387C209.246 50.4184 210.063 52.2208 211.516 53.5493C212.969 54.8777 214.939 55.6235 216.993 55.6225L190.348 55.6332V55.6301C192.374 55.5907 194.301 54.8266 195.718 53.5017C197.135 52.1767 197.927 50.3964 197.927 48.5426C197.926 46.6888 197.131 44.9091 195.713 43.5853C194.295 42.2614 192.367 41.4988 190.342 41.4611H190.343ZM251.769 106.936H245.098C242.977 106.93 240.944 106.156 239.445 104.783C237.945 103.41 237.1 101.55 237.094 99.6088C237.1 97.6677 237.945 95.8078 239.445 94.4352C240.945 93.0626 242.977 92.289 245.098 92.2834H251.769C253.89 92.289 255.922 93.0626 257.422 94.4351C258.922 95.8076 259.768 97.6676 259.775 99.6088C259.768 101.55 258.923 103.411 257.423 104.783C255.923 106.156 253.89 106.93 251.769 106.936Z" fill="white"/>
<path fillRule="evenodd" clipRule="evenodd" d="M341.283 29.2074L340.149 52.2778C340.125 52.8789 339.848 53.4481 339.374 53.8657C338.901 54.2832 338.27 54.5165 337.612 54.5165C336.955 54.5165 336.324 54.2832 335.85 53.8657C335.377 53.4481 335.1 52.8789 335.076 52.2778L333.944 29.2074C333.926 28.756 334.007 28.3058 334.183 27.8838C334.36 27.4618 334.627 27.0766 334.969 26.7513C335.312 26.426 335.723 26.1672 336.177 25.9905C336.631 25.8137 337.12 25.7227 337.613 25.7227C338.107 25.7227 338.595 25.8137 339.05 25.9905C339.504 26.1672 339.915 26.426 340.257 26.7513C340.6 27.0766 340.867 27.4618 341.043 27.8838C341.219 28.3058 341.301 28.756 341.283 29.2074ZM340.84 58.9419C341.7 59.6738 342.131 60.6298 342.131 61.8113C342.131 62.9928 341.7 63.9488 340.84 64.7375C339.918 65.4679 338.811 65.8622 337.582 65.8622C336.999 65.8718 336.42 65.7719 335.881 65.5687C335.342 65.3655 334.854 65.0633 334.447 64.6807C333.525 63.892 333.096 62.9376 333.096 61.8113C333.096 60.6298 333.525 59.6738 334.447 58.9419C335.307 58.1547 336.353 57.8171 337.582 57.8171C338.873 57.8171 339.98 58.1547 340.84 58.9419Z" fill="white"/>
<path fillRule="evenodd" clipRule="evenodd" d="M200.018 203.888C207.438 202.971 206.074 202.041 206.857 196.557C207.988 188.608 201.646 170.571 193.005 158.015C191.18 141.565 171.883 140.768 171.883 140.768C171.883 140.768 179.112 148.279 178.918 165.624C181.262 173.669 180.266 187.797 180.266 187.797C180.266 187.797 189.076 205.242 200.016 203.888" fill="#FFB594"/>
<path fillRule="evenodd" clipRule="evenodd" d="M169.242 139.954C169.242 139.954 171.695 139.06 174.626 140.847C188.173 142.993 192.009 151.137 193.571 158.291C196.696 160.258 196.696 161.866 196.696 163.655C197.308 164.848 199.236 168.305 199.236 168.305C199.236 168.305 187.123 170.987 180.871 178.674C178.525 168.839 169.242 139.953 169.242 139.953" fill="white"/>
<path fillRule="evenodd" clipRule="evenodd" d="M157.614 138.252L159.323 129.329L143.848 111.109L135.074 119.673L130.727 134.807C130.727 134.807 144.793 142.676 157.614 138.254" fill="#FFB594"/>
<path fillRule="evenodd" clipRule="evenodd" d="M139.042 119.402C139.042 119.402 131.401 115.001 134.942 108.827C137.679 104.059 142.549 110.574 142.549 110.574C142.549 110.574 143.428 104.955 147.812 104.955C148.689 103.35 150.443 98.5352 150.443 98.5352C150.443 98.5352 169.735 102.548 173.244 103.35C173.243 111.375 169.36 133.316 160.026 133.992C145.037 135.075 139.042 119.402 139.042 119.402Z" fill="#FFC6A0"/>
<path fillRule="evenodd" clipRule="evenodd" d="M172.641 110.238C177.027 107.027 178.491 95.2392 178.491 95.2392C178.491 95.2392 174.313 94.4843 167.298 92.0752C159.405 88.8651 145.725 84.7544 137.832 93.582C121.837 100.349 134.375 124.163 134.375 124.163L138.95 119.503C138.95 119.503 132.318 114.434 135.443 109.872C139.103 104.532 142.054 111.529 142.054 111.529C142.054 111.529 143.127 107.846 148.089 106.373C148.686 105.278 149.833 102.245 150.504 100.432C150.647 100.041 150.945 99.7131 151.339 99.5125C151.733 99.3118 152.194 99.2528 152.633 99.3469C156.674 100.206 167.258 102.462 171.775 103.453C172.653 103.646 173.243 104.403 173.158 105.227L172.641 110.238Z" fill="#520038"/>
<path fillRule="evenodd" clipRule="evenodd" d="M169.704 116.792C169.53 117.732 168.723 118.394 167.9 118.265C167.079 118.139 166.551 117.274 166.723 116.332C166.898 115.391 167.704 114.73 168.527 114.857C169.351 114.984 169.877 115.85 169.704 116.79V116.792ZM158.035 114.582C157.861 115.523 157.054 116.184 156.231 116.055C155.41 115.929 154.882 115.064 155.054 114.122C155.229 113.181 156.035 112.52 156.858 112.649C157.681 112.775 158.208 113.64 158.035 114.582Z" fill="#552950"/>
<path d="M166.328 112.387L164.819 114.873L164.316 121.593H160.561" stroke="#DB836E" stroke-width="1.063" stroke-linecap="round" strokeLinejoin="round"/>
<path d="M167.535 111.836C167.535 111.836 170.553 110.731 171.76 112.664" stroke="#5C2552" stroke-width="1.117" stroke-linecap="round" strokeLinejoin="round"/>
<path d="M136.42 111.528C136.42 111.528 137.225 109.81 138.298 110.423C139.371 111.037 140.444 112.633 139.237 113.492C138.029 114.352 139.505 116.07 139.505 116.07" stroke="#DB836E" stroke-width="1.117" stroke-linecap="round" strokeLinejoin="round"/>
<path d="M154.793 109.441C154.793 109.441 157.878 111.16 161.768 110.914" stroke="#5C2552" stroke-width="1.117" stroke-linecap="round" strokeLinejoin="round"/>
<path d="M140.309 122.207C140.309 122.207 143.303 132.253 155.837 134.412M155.463 123.066C155.463 123.066 159.219 124.908 162.84 124.908L155.463 123.066ZM157.073 126.994C157.073 126.994 158.682 127.608 159.621 127.486L157.073 126.994Z" stroke="#DB836E" stroke-width="1.063" stroke-linecap="round" strokeLinejoin="round"/>
<path d="M160.196 140.037C160.196 140.037 158.405 144.366 146.283 143.267C134.162 142.167 129.031 135.527 129.031 135.527" stroke="#E4EBF7" stroke-width="1.136" stroke-linecap="round" strokeLinejoin="round"/>
<path fillRule="evenodd" clipRule="evenodd" d="M130.985 133.615C130.985 133.615 141.927 141.244 158.599 137.429C158.599 137.429 174.655 138.994 177.94 145.595C186.926 163.656 178.85 202.117 177.94 206.915C183.801 213.137 177.159 219.932 177.159 219.932C150.964 214.487 117.12 219.011 117.12 219.011C108.99 213.57 115.069 205.133 115.069 205.133L104.586 168.664C100.419 145.299 105.982 138.278 110.536 136.835C115.616 135.226 124.016 134.868 124.016 134.868C124.847 134.779 125.826 134.752 126.313 134.511C130.269 132.544 130.985 133.616 130.985 133.616" fill="white"/>
<path fillRule="evenodd" clipRule="evenodd" d="M110.367 137.193C110.367 137.193 98.8408 137.907 97.642 149.708C96.8607 163.299 102.722 166.517 102.722 166.517C102.722 166.517 112.907 200.431 130.882 201.743C144.949 198.404 138.859 191.459 138.697 184.219C138.306 166.874 126.78 158.292 126.78 158.292C126.78 158.292 119.718 137.193 110.367 137.193Z" fill="#FFC6A0"/>
<path fillRule="evenodd" clipRule="evenodd" d="M120.238 190.001C120.238 190.001 121.672 207.285 136.716 199.954C144.705 196.062 149.426 178.735 153.128 165.324C155.569 156.474 157.454 146.609 157.454 146.609L149.116 143.986C149.116 143.986 145.079 152.45 136.09 162.822C128.822 171.21 120.76 179.869 120.238 190.001Z" fill="#FFC6A0"/>
<path d="M181.848 160.795C181.848 160.795 184.777 164.975 177.939 207.649C181.923 211.049 179.705 216.874 177.549 219.173" stroke="#E4EBF7" stroke-width="1.085" stroke-linecap="round" strokeLinejoin="round"/>
<path fillRule="evenodd" clipRule="evenodd" d="M206.66 201.205C206.66 201.205 205.944 205.397 186.926 204.245C161.464 202.701 144.465 199.258 144.465 199.258L146.029 190.358C146.029 190.358 147.241 190.688 162.309 190.254C182.239 189.682 193.685 180.94 204.163 188.686C210.935 193.693 206.66 201.207 206.66 201.207" fill="#FFC6A0"/>
<path fillRule="evenodd" clipRule="evenodd" d="M117.763 138.979C117.763 138.979 108.386 131.708 99.2303 143.092C93.6674 154.175 100.097 166.544 103.697 173.133C103.177 178.855 107.603 179.748 107.603 179.748C107.603 179.748 107.784 181.121 110.145 183.86C116.982 173.073 121.412 169.796 133.133 164.609C132.583 163.603 129.986 159.599 130.073 158.829C130.366 156.236 127.924 154.804 127.924 154.804C127.924 154.804 127.444 154.565 125.97 150.603C124.649 147.054 122.557 142.659 117.763 138.979Z" fill="white"/>
<path fillRule="evenodd" clipRule="evenodd" d="M151.283 441.346C151.283 441.346 159.423 444.888 165.221 443.119C170.566 441.488 173.805 444.277 178.637 445.161C183.467 446.046 191.662 447.068 200.78 442.976C200.584 433.42 187.726 436.073 178.116 431.333C173.262 428.939 170.946 423.145 171.299 416.074H153.483C153.483 416.074 150.846 434.319 151.283 441.346Z" fill="#CBD1D1"/>
<path fillRule="evenodd" clipRule="evenodd" d="M151.24 441.049C151.24 441.049 155.842 443.254 164.048 442.181C169.842 441.423 169.451 443.194 176.485 444.148C183.518 445.101 198.435 443.851 200.517 442.421C201.298 444.326 199.867 445.996 199.867 445.996C199.867 445.996 197.001 447.042 190.749 447.426C186.901 447.662 177.172 447.849 173.749 446.473C170.362 444.089 165.543 444.148 163.588 446.114C156.166 447.764 151.544 445.638 151.544 445.638L151.24 441.049Z" fill="#2B0849"/>
<path fillRule="evenodd" clipRule="evenodd" d="M165.026 417.148H170.887C170.887 417.148 170.691 428.77 179.483 431.988C170.691 433.062 163.267 427.995 165.026 417.148Z" fill="#A4AABA"/>
<path fillRule="evenodd" clipRule="evenodd" d="M74.4823 416.824C74.4823 416.824 70.7804 428.753 66.599 436.617C63.4403 442.561 59.175 448.669 76.2042 448.669C87.8901 448.669 91.939 447.897 89.2515 438.055C86.5622 428.211 89.7192 416.824 89.7192 416.824H74.4823Z" fill="#CBD1D1"/>
<path fillRule="evenodd" clipRule="evenodd" d="M63.8218 444.798C63.8218 444.798 67.5069 446.678 75.4808 446.678C86.1708 446.678 89.9766 444.023 89.9766 444.023C89.9766 444.023 91.0329 445.816 88.8885 447.507C87.1449 448.883 82.5678 450.066 75.9033 449.994C68.6151 449.917 65.6509 449.084 64.0632 448.116C62.6146 447.23 62.856 445.573 63.8218 444.798Z" fill="#2B0849"/>
<path fillRule="evenodd" clipRule="evenodd" d="M76.024 419.885C76.024 419.885 76.0827 422.328 75.4724 424.596C74.8604 426.882 73.5778 429.591 73.4873 431.255C73.385 433.106 81.4595 433.798 82.5459 431.311C83.6357 428.822 84.8211 420.973 85.9092 419.646C86.9956 418.319 77.2915 416.236 76.024 419.885Z" fill="#A4AABA"/>
<path fillRule="evenodd" clipRule="evenodd" d="M150.014 425.301L173.317 425.446C173.317 425.446 175.579 338.531 176.544 322.778C177.51 307.024 183.122 253.649 178.291 222.142L156.434 221.115L116.636 222.358C116.636 222.358 115.879 228.68 114.552 238.263C114.443 239.053 113.365 239.604 113.25 240.437C113.119 241.37 113.986 242.596 113.806 243.573C109.69 266.018 104.087 293.805 99.9643 315.442C99.7614 316.505 97.8149 317.05 97.4243 319.732C97.3539 320.214 97.7931 322.163 97.6188 322.594C85.6479 352.474 77.1609 403.307 71.3633 425.693L96.8073 425.67C96.8073 425.67 100.633 410.103 103.824 396.714C108.723 376.169 144.082 261.192 144.082 261.192L149.335 259.728L149.07 334.253C149.07 334.253 148.679 336.22 149.657 337.472C150.634 338.723 148.683 339.263 148.973 341.049L149.657 343.909C149.657 343.909 148.876 355.353 148.094 362.863C147.311 370.374 150.014 425.299 150.014 425.299" fill="#7BB2F9"/>
<path d="M160.993 340.851C160.993 340.851 165.824 339.084 171.623 334.661M108.258 335.246C110.265 335.398 115.291 332.028 120.371 327.379L108.258 335.246Z" stroke="#648BD8" stroke-width="1.085" stroke-linecap="round" strokeLinejoin="round"/>
<path d="M162.584 336C162.584 336 167.416 334.231 173.214 329.811" stroke="#648BD8" stroke-width="1.032" stroke-linecap="round" strokeLinejoin="round"/>
<path d="M74.1758 419.404H97.3597M105.914 340.253C105.914 340.253 110.481 339.311 117.246 334.888L105.914 340.253ZM125.582 223.669C125.111 228.619 126.102 237.258 118.027 238.212L125.582 223.669ZM156.228 220.873C156.228 220.873 156.421 243.21 153.975 244.887C150.11 247.542 148.766 247.987 148.766 247.987L156.228 220.873ZM149.547 221.762C149.547 221.762 149.998 241.93 147.854 260.258L149.547 221.762ZM140.037 261.33C140.037 261.33 151.455 259.717 155.321 259.717L140.037 261.33ZM77.1668 413.754L75.6713 420.717L77.1668 413.754ZM78.6942 403.387L77.3278 409.766L78.6942 403.387ZM105.164 310.115C104.611 312.597 104.993 313.036 104.411 315.39C104.411 315.39 99.7908 318.31 100.572 321.41C101.353 324.509 100.052 326.664 93.019 347.882C90.0649 356.792 85.922 376.917 82.6828 391.273C82.6325 391.494 81.8093 395.333 80.7715 400.173L105.164 310.115ZM107.567 297.276C107.072 299.82 106.561 302.355 106.029 304.853L107.567 297.276ZM119.591 224.622L117.506 241.312C117.506 241.312 115.594 241.55 116.636 244.887C116.832 247.034 111.978 270.037 107.612 293.399L119.591 224.622Z" stroke="#648BD8" stroke-width="1.085" stroke-linecap="round" strokeLinejoin="round"/>
<path fillRule="evenodd" clipRule="evenodd" d="M178.02 217.456C172.943 216.706 146.458 213.245 117.295 217.763C117.044 217.803 116.817 217.925 116.657 218.107C116.497 218.289 116.415 218.518 116.427 218.751C116.532 220.757 116.501 222.346 116.452 223.347C116.445 223.487 116.473 223.628 116.533 223.757C116.593 223.887 116.683 224.003 116.798 224.096C116.913 224.19 117.05 224.258 117.197 224.298C117.345 224.337 117.501 224.345 117.652 224.323C123.19 223.503 146.217 220.621 177.446 223.914C178.028 223.976 178.553 223.586 178.607 223.055C178.815 220.988 178.875 219.334 178.892 218.407C178.896 218.179 178.811 217.957 178.65 217.782C178.49 217.607 178.266 217.491 178.02 217.456Z" fill="#192064"/>
<path fillRule="evenodd" clipRule="evenodd" d="M161.621 222.284L161.626 214.455C161.628 214.12 161.487 213.797 161.234 213.555C160.981 213.312 160.635 213.169 160.269 213.156C155.721 213 151.169 212.993 146.62 213.134C146.252 213.146 145.903 213.288 145.646 213.53C145.39 213.773 145.246 214.097 145.245 214.434L145.24 222.255C145.24 222.985 145.891 223.57 146.689 223.551C150.843 223.453 155.35 223.449 160.152 223.578C160.342 223.583 160.531 223.554 160.708 223.492C160.886 223.43 161.048 223.335 161.185 223.215C161.322 223.094 161.431 222.95 161.506 222.79C161.58 222.63 161.62 222.458 161.621 222.284Z" fill="white"/>
<path fillRule="evenodd" clipRule="evenodd" d="M159.677 220.798L159.68 215.896C159.683 215.629 159.571 215.373 159.37 215.18C159.169 214.987 158.893 214.874 158.602 214.865C155.417 214.771 151.995 214.753 148.385 214.849C148.092 214.858 147.814 214.97 147.609 215.162C147.405 215.355 147.29 215.612 147.289 215.881L147.285 220.778C147.285 221.355 147.797 221.817 148.425 221.805C151.542 221.741 154.92 221.739 158.518 221.823C159.149 221.839 159.675 221.377 159.677 220.798Z" fill="#192064"/>
<path d="M151.631 260.859L153.194 332.027C153.194 332.027 154.367 334.53 152.803 336.317C151.24 338.106 157.102 337.391 154.366 339.892C151.633 342.398 155.93 341.682 154.366 345.258C153.33 347.631 152.637 378.895 152.458 401.285M151.064 419.088H172.557H151.064ZM152.932 413.317C152.942 418.717 152.811 421.833 152.932 422.972V413.317ZM152.441 403.67C152.426 406.124 152.414 407.595 152.414 410.583L152.441 403.67Z" stroke="#648BD8" stroke-width="1.085" stroke-linecap="round" strokeLinejoin="round"/>
<path d="M130.099 137.549C130.099 137.549 142.994 146.966 157.842 141.723M123.624 150.78L127.336 157.397C127.336 157.397 130.854 158.649 130.463 161.509L131.831 164.906L123.624 150.78ZM107.799 178.317C108.189 176.887 111.447 167.351 128.899 162.224L107.799 178.317Z" stroke="#E4EBF7" stroke-width="1.085" stroke-linecap="round" strokeLinejoin="round"/>
<path fillRule="evenodd" clipRule="evenodd" d="M154.203 132.81C154.203 132.81 163.384 131.558 166.901 125.836C169.076 125.306 168.108 129.23 166.348 131.469C165.174 132.959 164.655 133.853 164.655 133.853C164.655 133.853 164.98 134.329 164.914 135.105C164.826 136.175 164.621 136.107 164.458 136.713C164.323 137.227 164.639 137.721 164.458 138.323C164.381 138.584 164.126 139.09 163.818 139.67C163.617 140.052 163.697 140.724 163.483 141.125C163.095 141.845 160.864 143.994 159.087 145.506C152.672 150.959 150.673 148.028 149.025 144.88C147.526 142.018 147.917 137.013 147.56 134.33C146.973 129.859 143.164 129.681 144.336 127.534C144.911 126.483 149.148 128.593 149.807 130.217C151.076 133.347 154.756 132.989 154.203 132.81Z" fill="#FFC6A0"/>
<path d="M167.325 125.867C166.545 125.985 166.738 126.285 165.699 127.774C164.656 129.264 157.623 132.273 154.985 132.722C150.645 133.458 151.166 130.328 147.853 128.341C145.02 126.642 141.881 127.362 145.509 130.486C147.169 131.916 147.072 132.184 147.853 135.404C148.415 137.715 146.78 141.035 149.027 143.986" stroke="#DB836E" stroke-width="0.774" stroke-linecap="round" strokeLinejoin="round"/>
<path d="M133.362 166.137C129.841 170.626 126.209 175.612 124.045 179.582" stroke="#E59788" stroke-width="0.774" stroke-linecap="round" strokeLinejoin="round"/>
<path fillRule="evenodd" clipRule="evenodd" d="M147.071 190.833C147.071 190.833 143.554 187.853 138.475 186.661C133.395 185.469 132.483 186.423 129.227 186.781C125.971 187.138 122.714 185.351 123.104 187.855C123.495 190.356 131.571 189.405 131.833 191.073C132.093 192.741 121.153 195.363 117.895 194.41C116.593 195.602 118.677 197.27 121.282 197.747C121.673 200.132 125.059 200.132 125.059 200.132C125.059 200.132 126.231 201.682 129.487 201.801C133.655 203.827 144.466 200.727 147.853 199.417C151.239 198.105 147.071 190.833 147.071 190.833Z" fill="#FFC6A0"/>
<path d="M132.224 165.264C132.224 165.264 118.157 169.496 110.146 183.861M123.105 187.854C123.105 187.854 124.211 189.583 128.415 190.03C132.296 190.444 132.712 190.924 132.712 190.924C132.712 190.924 128.445 195.365 117.505 194.41L123.105 187.854ZM121.413 197.748C121.413 197.748 127.828 197.897 129.684 196.646L121.413 197.748ZM125.712 200.013C125.712 200.013 129 200.221 131.345 199.238L125.712 200.013ZM129.488 201.802C129.488 201.802 132.418 201.831 134.373 201.027L129.488 201.802ZM122.942 187.079C122.942 187.079 121.945 185.495 125.058 186.424C127.86 187.258 129.808 186.508 133.656 186.661C135.984 186.755 138.798 186.206 140.332 186.892C143.025 188.095 146.421 190.238 146.421 190.238C146.421 190.238 164.069 192.086 178.332 188.509L122.942 187.079Z" stroke="#E59788" stroke-width="0.774" stroke-linecap="round" strokeLinejoin="round"/>
<path d="M183.215 172.06C183.215 172.06 188.882 166.516 195.915 164.906" stroke="#E4EBF7" stroke-width="1.085" stroke-linecap="round" strokeLinejoin="round"/>
<path d="M180.023 188.13C180.023 188.13 196.281 183.918 199.212 186.78" stroke="#E59788" stroke-width="0.774" stroke-linecap="round" strokeLinejoin="round"/>
<path d="M222.946 260.299L216.315 254.23M326.274 127.749L332.932 121.786L326.274 127.749ZM313.802 138.915L320.066 133.307L313.802 138.915ZM321.491 128.595L314.01 121.598L321.491 128.595ZM332.726 139.106L325.797 132.623L332.726 139.106ZM216.711 249.612L222.944 243.907L216.711 249.612ZM205.033 260.299L210.898 254.932L205.033 260.299ZM212.192 250.459L205.033 243.907L212.192 250.459Z" stroke="#BFCDDD" stroke-width="2" stroke-linecap="round" strokeLinejoin="round"/>
<path fillRule="evenodd" clipRule="evenodd" d="M318.814 324.348H316.125C314.343 324.343 312.636 323.693 311.376 322.54C310.116 321.387 309.406 319.824 309.4 318.193V268.956C309.406 267.326 310.116 265.764 311.376 264.611C312.635 263.458 314.342 262.808 316.124 262.803H318.814C320.596 262.808 322.303 263.457 323.563 264.61C324.823 265.763 325.534 267.325 325.539 268.956V318.193C325.534 319.823 324.823 321.385 323.564 322.538C322.304 323.691 320.597 324.341 318.816 324.346" fill="#A3B4C6"/>
<path fillRule="evenodd" clipRule="evenodd" d="M398.734 326.186C398.734 328.145 397.884 330.023 396.371 331.408C394.857 332.793 392.805 333.571 390.665 333.571H245.411C243.271 333.571 241.219 332.793 239.705 331.408C238.192 330.023 237.342 328.145 237.342 326.186C237.342 324.227 238.192 322.349 239.705 320.964C241.219 319.579 243.271 318.801 245.411 318.801H390.665C392.805 318.801 394.857 319.579 396.371 320.964C397.884 322.349 398.734 324.227 398.734 326.186Z" fill="#A3B4C6"/>
<path fillRule="evenodd" clipRule="evenodd" d="M258.359 291.076H376.581V161.236H258.359V291.076Z" fill="#A3B4C6"/>
<path fillRule="evenodd" clipRule="evenodd" d="M377.114 291.077H257.828C256.402 291.072 255.037 290.552 254.029 289.629C253.022 288.707 252.454 287.457 252.449 286.153V257.049C252.453 255.744 253.021 254.494 254.029 253.571C255.036 252.648 256.402 252.128 257.828 252.123H377.114C378.54 252.127 379.906 252.648 380.914 253.57C381.922 254.493 382.49 255.744 382.494 257.049V286.153C382.49 287.457 381.921 288.708 380.913 289.63C379.905 290.553 378.538 291.073 377.112 291.077H377.114ZM377.114 200.139H257.828C256.403 200.135 255.037 199.615 254.029 198.693C253.022 197.771 252.454 196.521 252.449 195.217V166.112C252.454 164.807 253.022 163.557 254.029 162.635C255.037 161.712 256.402 161.192 257.828 161.188H377.114C378.54 161.192 379.906 161.712 380.914 162.635C381.922 163.558 382.49 164.808 382.494 166.113V195.217C382.49 196.522 381.921 197.772 380.913 198.694C379.904 199.617 378.538 200.136 377.112 200.139" fill="#BFCDDD"/>
<path fillRule="evenodd" clipRule="evenodd" d="M267.522 184.355C266.985 184.365 266.452 184.277 265.953 184.096C265.454 183.915 264.999 183.644 264.616 183.3C264.232 182.956 263.927 182.546 263.719 182.093C263.511 181.64 263.404 181.154 263.404 180.662C263.404 180.171 263.511 179.684 263.719 179.231C263.927 178.778 264.232 178.368 264.616 178.024C264.999 177.68 265.454 177.41 265.953 177.229C266.452 177.048 266.985 176.96 267.522 176.97C268.578 176.989 269.583 177.387 270.322 178.077C271.061 178.768 271.475 179.696 271.475 180.662C271.475 181.629 271.061 182.557 270.322 183.247C269.583 183.937 268.578 184.335 267.522 184.355ZM279.957 184.355C279.421 184.365 278.887 184.277 278.388 184.096C277.889 183.915 277.434 183.644 277.051 183.3C276.667 182.956 276.363 182.546 276.155 182.093C275.947 181.64 275.84 181.154 275.84 180.662C275.84 180.171 275.947 179.684 276.155 179.231C276.363 178.778 276.667 178.368 277.051 178.024C277.434 177.68 277.889 177.41 278.388 177.229C278.887 177.048 279.421 176.96 279.957 176.97C281.013 176.989 282.019 177.387 282.758 178.077C283.497 178.768 283.911 179.696 283.911 180.662C283.911 181.629 283.497 182.557 282.758 183.247C282.019 183.937 281.013 184.335 279.957 184.355ZM292.393 184.355C291.856 184.365 291.322 184.277 290.823 184.096C290.324 183.915 289.87 183.644 289.486 183.3C289.103 182.956 288.798 182.546 288.59 182.093C288.382 181.64 288.275 181.154 288.275 180.662C288.275 180.171 288.382 179.684 288.59 179.231C288.798 178.778 289.103 178.368 289.486 178.024C289.87 177.68 290.324 177.41 290.823 177.229C291.322 177.048 291.856 176.96 292.393 176.97C293.449 176.989 294.454 177.387 295.193 178.077C295.932 178.768 296.346 179.696 296.346 180.662C296.346 181.629 295.932 182.557 295.193 183.247C294.454 183.937 293.449 184.335 292.393 184.355ZM373.107 184.355H335.449C335.093 184.355 334.751 184.225 334.499 183.994C334.246 183.764 334.105 183.451 334.105 183.124V178.202C334.105 177.522 334.707 176.97 335.449 176.97H373.106C373.85 176.97 374.452 177.522 374.452 178.202V183.124C374.452 183.804 373.848 184.355 373.107 184.355Z" fill="white"/>
<path fillRule="evenodd" clipRule="evenodd" d="M377.114 245.608H257.828C256.402 245.604 255.037 245.084 254.029 244.161C253.021 243.239 252.453 241.989 252.449 240.684V211.58C252.454 210.276 253.022 209.026 254.029 208.103C255.037 207.181 256.402 206.661 257.828 206.656H377.114C378.54 206.66 379.906 207.18 380.914 208.103C381.922 209.025 382.49 210.276 382.494 211.58V240.684C382.49 241.989 381.922 243.24 380.913 244.162C379.905 245.085 378.538 245.605 377.112 245.608" fill="#BFCDDD"/>
<path d="M260.828 245.836H272.147M290.814 200.139H373.472H290.814ZM276.612 200.139H286.82H276.612ZM261.469 200.139H272.786H261.469ZM291.454 245.836H374.111H291.454ZM277.25 245.836H287.459H277.25Z" stroke="#7C90A5" stroke-width="1.124" stroke-linecap="round" strokeLinejoin="round"/>
<path fillRule="evenodd" clipRule="evenodd" d="M267.522 231.145C266.452 231.145 265.425 230.756 264.669 230.063C263.912 229.37 263.487 228.431 263.487 227.451C263.487 226.472 263.912 225.532 264.669 224.84C265.425 224.147 266.452 223.758 267.522 223.758C268.592 223.758 269.619 224.147 270.376 224.84C271.132 225.532 271.558 226.472 271.558 227.451C271.558 228.431 271.132 229.37 270.376 230.063C269.619 230.756 268.592 231.145 267.522 231.145ZM279.957 231.145C278.887 231.145 277.861 230.756 277.104 230.063C276.347 229.37 275.922 228.431 275.922 227.451C275.922 226.472 276.347 225.532 277.104 224.84C277.861 224.147 278.887 223.758 279.957 223.758C281.028 223.758 282.054 224.147 282.811 224.84C283.568 225.532 283.993 226.472 283.993 227.451C283.993 228.431 283.568 229.37 282.811 230.063C282.054 230.756 281.028 231.145 279.957 231.145ZM292.393 231.145C291.863 231.145 291.338 231.049 290.848 230.863C290.359 230.677 289.914 230.405 289.539 230.062C289.165 229.719 288.868 229.312 288.665 228.864C288.462 228.416 288.358 227.935 288.358 227.45C288.358 226.965 288.463 226.485 288.666 226.037C288.868 225.589 289.166 225.182 289.541 224.839C289.915 224.496 290.36 224.224 290.85 224.039C291.34 223.853 291.864 223.758 292.394 223.758C293.465 223.758 294.491 224.147 295.248 224.84C296.005 225.532 296.43 226.472 296.43 227.451C296.43 228.431 296.005 229.37 295.248 230.063C294.491 230.756 293.465 231.145 292.394 231.145H292.393ZM373.107 231.145H335.449C335.093 231.145 334.751 231.015 334.499 230.784C334.246 230.553 334.105 230.24 334.105 229.914V224.99C334.105 224.31 334.707 223.759 335.449 223.759H373.106C373.85 223.759 374.452 224.312 374.452 224.99V229.914C374.452 230.594 373.848 231.145 373.107 231.145ZM267.522 275.565C266.985 275.575 266.452 275.487 265.953 275.306C265.454 275.125 264.999 274.855 264.616 274.511C264.232 274.167 263.927 273.756 263.719 273.303C263.511 272.85 263.404 272.364 263.404 271.873C263.404 271.381 263.511 270.895 263.719 270.442C263.927 269.989 264.232 269.578 264.616 269.234C264.999 268.891 265.454 268.62 265.953 268.439C266.452 268.258 266.985 268.17 267.522 268.18C268.578 268.2 269.583 268.597 270.322 269.288C271.061 269.978 271.475 270.906 271.475 271.873C271.475 272.839 271.061 273.767 270.322 274.457C269.583 275.148 268.578 275.546 267.522 275.565ZM279.957 275.565C279.421 275.575 278.887 275.487 278.388 275.306C277.889 275.125 277.434 274.855 277.051 274.511C276.667 274.167 276.363 273.756 276.155 273.303C275.947 272.85 275.84 272.364 275.84 271.873C275.84 271.381 275.947 270.895 276.155 270.442C276.363 269.989 276.667 269.578 277.051 269.234C277.434 268.891 277.889 268.62 278.388 268.439C278.887 268.258 279.421 268.17 279.957 268.18C281.013 268.2 282.019 268.597 282.758 269.288C283.497 269.978 283.911 270.906 283.911 271.873C283.911 272.839 283.497 273.767 282.758 274.457C282.019 275.148 281.013 275.546 279.957 275.565ZM292.393 275.565C291.856 275.575 291.322 275.487 290.823 275.306C290.324 275.125 289.87 274.855 289.486 274.511C289.103 274.167 288.798 273.756 288.59 273.303C288.382 272.85 288.275 272.364 288.275 271.873C288.275 271.381 288.382 270.895 288.59 270.442C288.798 269.989 289.103 269.578 289.486 269.234C289.87 268.891 290.324 268.62 290.823 268.439C291.322 268.258 291.856 268.17 292.393 268.18C293.449 268.2 294.454 268.597 295.193 269.288C295.932 269.978 296.346 270.906 296.346 271.873C296.346 272.839 295.932 273.767 295.193 274.457C294.454 275.148 293.449 275.546 292.393 275.565ZM373.107 275.565H335.449C335.093 275.565 334.751 275.436 334.499 275.205C334.246 274.974 334.105 274.661 334.105 274.335V269.411C334.105 268.731 334.707 268.18 335.449 268.18H373.106C373.85 268.18 374.452 268.732 374.452 269.411V274.335C374.452 275.014 373.848 275.565 373.107 275.565Z" fill="white"/>
<path fillRule="evenodd" clipRule="evenodd" d="M340.416 338.662H294.524C293.455 338.659 292.43 338.269 291.675 337.577C290.919 336.885 290.493 335.947 290.49 334.969V317.402C290.493 316.424 290.919 315.486 291.675 314.794C292.431 314.102 293.455 313.712 294.524 313.709H340.416C341.485 313.712 342.51 314.102 343.266 314.794C344.022 315.486 344.448 316.424 344.451 317.402V334.967C344.449 335.946 344.023 336.884 343.267 337.576C342.51 338.268 341.485 338.658 340.416 338.661" fill="#BFCDDD"/>
<path d="M337.079 317.348V335.024M297.191 317.348V335.024V317.348Z" stroke="#A3B4C6" stroke-width="1.124" stroke-linecap="round" strokeLinejoin="round"/>
<path fillRule="evenodd" clipRule="evenodd" d="M273.072 410.453C268.883 410.453 264.865 408.93 261.902 406.219C258.94 403.508 257.275 399.83 257.275 395.996V373.255C257.318 369.447 259.002 365.807 261.96 363.128C264.918 360.448 268.911 358.945 273.073 358.945C277.235 358.945 281.229 360.448 284.187 363.128C287.145 365.807 288.828 369.447 288.871 373.255V395.996C288.87 399.83 287.206 403.508 284.243 406.219C281.28 408.93 277.262 410.453 273.072 410.453Z" fill="#5BA02E"/>
<path fillRule="evenodd" clipRule="evenodd" d="M287.066 410.355C284.992 410.355 282.937 409.981 281.021 409.254C279.104 408.528 277.363 407.463 275.896 406.12C274.429 404.777 273.265 403.183 272.472 401.429C271.678 399.675 271.269 397.795 271.27 395.896V390.621C271.312 386.812 272.996 383.172 275.954 380.493C278.912 377.814 282.905 376.311 287.067 376.311C291.229 376.311 295.223 377.814 298.181 380.493C301.139 383.172 302.822 386.812 302.865 390.621V395.896C302.865 399.731 301.201 403.408 298.238 406.12C295.276 408.831 291.258 410.355 287.068 410.355" fill="#92C110"/>
<path fillRule="evenodd" clipRule="evenodd" d="M303.983 449.999H257.521C256.814 449.999 256.114 449.872 255.462 449.624C254.809 449.377 254.215 449.014 253.716 448.557C253.216 448.099 252.82 447.556 252.55 446.959C252.279 446.361 252.14 445.721 252.141 445.074V413.363C252.14 412.716 252.279 412.076 252.55 411.478C252.82 410.881 253.216 410.338 253.716 409.88C254.215 409.423 254.809 409.06 255.462 408.812C256.114 408.565 256.814 408.437 257.521 408.438H303.981C304.688 408.437 305.387 408.565 306.04 408.812C306.693 409.06 307.286 409.423 307.786 409.88C308.286 410.338 308.682 410.881 308.952 411.478C309.222 412.076 309.361 412.716 309.361 413.363V445.077C309.361 446.383 308.794 447.635 307.785 448.559C306.776 449.482 305.408 450.001 303.981 450.001" fill="#F2D7AD"/>
</svg>
