<svg width="98" height="55" viewBox="0 0 98 55" fill="none" xmlns="http://www.w3.org/2000/svg">
<path d="M45.1945 40.3237L42.3408 32.1736L41.6384 32.2609V40.3237H34.2715V13.0898H43.9126C49.216 13.0898 52.0258 16.4843 52.0258 22.0602C52.0258 25.9345 50.9282 28.596 48.7858 30.0357L52.9478 40.3237H45.1945ZM42.6921 26.4668C43.9652 26.2923 44.5799 25.3324 44.5799 22.6797C44.5799 19.9747 43.7896 19.1544 42.4286 19.1544H41.6384V26.6064L42.6921 26.4668Z" fill="black"/>
<path d="M53.6934 30.2104C53.6934 23.5001 56.7578 19.3203 62.4564 19.3203C68.111 19.3203 71.0086 23.1947 71.0086 30.0358C71.0086 36.7461 67.9442 40.9259 62.2456 40.9259C56.5909 40.9259 53.6934 37.0516 53.6934 30.2104ZM63.8613 30.0795C63.8613 25.8561 63.2905 24.809 62.3247 24.809C61.3588 24.809 60.832 25.8997 60.832 30.1667C60.832 34.3901 61.4027 35.4372 62.3686 35.4372C63.3344 35.4372 63.8613 34.3552 63.8613 30.0795Z" fill="black"/>
<path d="M74.0818 33.6571C75.3111 34.6606 77.234 35.5332 78.6828 35.5332C79.517 35.5332 80.0877 35.1406 80.0877 34.5297C80.0877 33.9625 79.7365 33.5699 78.3316 32.9591C75.0915 31.5193 72.8086 29.172 72.8086 25.8561C72.8086 21.7636 75.7413 19.3203 80.4828 19.3203C82.7658 19.3203 85.3034 20.0184 86.7961 20.9783L85.5229 26.6851C84.1619 25.5507 82.195 24.7217 81.0975 24.7217C80.2633 24.7217 79.7365 24.9835 79.7365 25.5943C79.7365 26.1179 80.3072 26.5978 81.4926 27.1214C85.3912 28.9102 87.0156 31.1702 87.0156 34.1807C87.0156 38.4477 84.0829 40.9346 79.4291 40.9346C77.1901 40.9346 74.3452 40.3238 72.8525 39.3639L74.0818 33.6571Z" fill="black"/>
<path d="M89.1152 13.4825C89.1152 10.9083 90.6518 9.30273 93.0138 9.30273C95.3758 9.30273 96.9124 10.9607 96.9124 13.4825C96.9124 16.0567 95.3758 17.6622 93.0138 17.6622C90.6518 17.6622 89.1152 16.013 89.1152 13.4825ZM89.5104 40.3237V20.28L96.526 19.3202V40.3149H89.5104V40.3237Z" fill="black"/>
<path d="M36.9745 44.6677L35.9121 47.5037H35.4379L34.3755 44.6677L34.3404 47.556H33.875L33.9891 44.0918H34.6213L35.6926 46.9452L36.755 44.0918H37.3785L37.4926 47.556H37.0097L36.9745 44.6677Z" fill="black"/>
<path d="M38.5289 46.3607C38.5464 46.8581 38.8801 47.2159 39.3718 47.2159C39.6352 47.2159 39.9338 47.1461 40.1357 47.0065L40.2235 47.4253C39.9952 47.5649 39.6879 47.6348 39.363 47.6348C38.5903 47.6348 38.0723 47.085 38.0723 46.3084C38.0723 45.4882 38.6167 44.9297 39.3367 44.9297C39.9601 44.9297 40.3113 45.3136 40.3113 45.9244C40.3113 46.0641 40.285 46.2211 40.2586 46.3258C40.2499 46.3258 38.5376 46.3346 38.5376 46.3346V46.3607H38.5289ZM39.8635 45.9943V45.9594C39.8635 45.5841 39.6879 45.3311 39.284 45.3311C38.845 45.3311 38.5903 45.6714 38.5552 46.0117L39.8635 45.9943Z" fill="black"/>
<path d="M42.2163 47.277C42.0231 47.5039 41.786 47.6348 41.5139 47.6348C41.0309 47.6348 40.6973 47.3206 40.6973 46.9105C40.6973 46.4567 41.0221 46.0553 42.2163 46.003V45.9332C42.2163 45.5231 42.0582 45.3573 41.6456 45.3573C41.3821 45.3573 41.0573 45.4794 40.8202 45.6365L40.7324 45.2264C40.9519 45.0693 41.3295 44.9297 41.6895 44.9297C42.3831 44.9297 42.6904 45.2264 42.6729 45.9157V46.9803C42.6729 47.1897 42.6992 47.2334 42.9275 47.2334L42.9012 47.6173C42.4885 47.6522 42.3041 47.5039 42.2339 47.2857H42.2163V47.277ZM42.2163 46.2909C41.4612 46.3869 41.1802 46.544 41.1802 46.8581C41.1802 47.085 41.3558 47.2508 41.628 47.2508C41.8651 47.2508 42.067 47.1374 42.2163 46.9803V46.2909Z" fill="black"/>
<path d="M45.0785 47.5553V45.9584C45.0785 45.5221 44.9117 45.3738 44.5516 45.3738C44.2882 45.3738 44.0248 45.5134 43.8843 45.653V47.5553H43.4277V45.0073L43.8843 44.9375V45.3214C44.1214 45.0858 44.4199 44.9375 44.7185 44.9375C45.2365 44.9375 45.5439 45.2604 45.5439 45.8101V47.5553H45.0785Z" fill="black"/>
<path d="M46.5368 44.4504C46.3261 44.4504 46.2383 44.2933 46.2383 44.1276C46.2383 43.9618 46.3349 43.8047 46.5368 43.8047C46.7388 43.8047 46.8354 43.9618 46.8354 44.1276C46.8354 44.2933 46.7476 44.4504 46.5368 44.4504ZM46.3085 47.5569V45.0089L46.7651 44.9391V47.5569H46.3085Z" fill="black"/>
<path d="M49.2152 47.5553V45.9584C49.2152 45.5221 49.0484 45.3738 48.6884 45.3738C48.425 45.3738 48.1615 45.5134 48.021 45.653V47.5553H47.5645V45.0073L48.021 44.9375V45.3214C48.2581 45.0858 48.5567 44.9375 48.8552 44.9375C49.3733 44.9375 49.6806 45.2604 49.6806 45.8101V47.5553H49.2152Z" fill="black"/>
<path d="M50.3025 47.1625C50.3025 46.9531 50.4694 46.7611 50.724 46.6651C50.4606 46.5081 50.3025 46.2288 50.3025 45.8798C50.3025 45.3824 50.6801 44.9199 51.3386 44.9199C51.6108 44.9199 51.8391 44.9897 51.9972 45.0683L52.6557 45.0072L52.6733 45.4522L52.1816 45.365C52.2782 45.4609 52.3572 45.6965 52.3572 45.8885C52.3572 46.3946 51.9357 46.8222 51.3386 46.8222C51.2069 46.8222 51.1279 46.8047 50.9786 46.7611C50.8733 46.796 50.724 46.9007 50.724 47.0229C50.724 47.1712 50.8206 47.2585 51.3035 47.2585C51.3035 47.2585 51.5933 47.2585 51.5406 47.2585C52.3045 47.2585 52.6557 47.4941 52.6557 47.9391C52.6557 48.4976 52.0499 48.9164 51.2772 48.9164C50.6011 48.9164 50.0918 48.6285 50.0918 48.1747C50.0918 47.8868 50.285 47.6512 50.6362 47.5813C50.4167 47.4941 50.3025 47.337 50.3025 47.1625ZM50.5396 48.0875C50.5396 48.358 50.8645 48.5587 51.3474 48.5587C51.8303 48.5587 52.2079 48.3492 52.2079 48.0438C52.2079 47.7646 51.9533 47.7035 51.444 47.7035C51.286 47.7035 51.0928 47.6948 50.9786 47.6773C50.724 47.7471 50.5396 47.8955 50.5396 48.0875ZM51.3562 46.4557C51.6899 46.4557 51.9006 46.2201 51.9006 45.8623C51.9006 45.5307 51.7074 45.2951 51.3123 45.2951C50.9786 45.2951 50.7503 45.5395 50.7503 45.8972C50.7591 46.2288 50.9874 46.4557 51.3562 46.4557Z" fill="black"/>
<path d="M54.4398 44.2315C54.3256 44.1791 54.1588 44.1181 54.0359 44.1181C53.7812 44.1181 53.6583 44.2751 53.6583 44.6591V45.0168H54.4661L54.4486 45.427H53.6583V47.5561H53.2017V45.4357L52.7539 45.4008L52.7802 45.1128L53.2017 44.9907L53.2105 44.6678C53.2193 43.961 53.5529 43.6992 54.0534 43.6992C54.2466 43.6992 54.4398 43.769 54.5627 43.8214C54.5539 43.8301 54.4398 44.2402 54.4398 44.2315Z" fill="black"/>
<path d="M55.2993 45.0165V46.6134C55.2993 47.0497 55.4662 47.198 55.7998 47.198C56.0984 47.198 56.353 47.0584 56.4935 46.9188V45.0078H56.9501V47.5558L56.4935 47.6256C56.4935 47.6256 56.4935 47.2853 56.4935 47.2504C56.2564 47.486 55.9579 47.6256 55.633 47.6256C55.1413 47.6256 54.834 47.3028 54.834 46.753V45.0078H55.2993V45.0165Z" fill="black"/>
<path d="M57.75 47.5565V43.8218L58.2066 43.752V47.5565H57.75Z" fill="black"/>
<path d="M60.1209 47.1625C60.1209 46.9531 60.2877 46.7611 60.5424 46.6651C60.2789 46.5081 60.1209 46.2288 60.1209 45.8798C60.1209 45.3824 60.4985 44.9199 61.157 44.9199C61.4292 44.9199 61.6575 44.9897 61.8155 45.0683L62.4741 45.0072L62.4916 45.4522L61.9999 45.365C62.0965 45.4609 62.1755 45.6965 62.1755 45.8885C62.1755 46.3946 61.7541 46.8222 61.157 46.8222C61.0253 46.8222 60.9463 46.8047 60.797 46.7611C60.6916 46.796 60.5424 46.9007 60.5424 47.0229C60.5424 47.1712 60.6389 47.2585 61.1219 47.2585C61.1219 47.2585 61.4116 47.2585 61.3589 47.2585C62.1229 47.2585 62.4741 47.4941 62.4741 47.9391C62.4741 48.4976 61.8682 48.9164 61.0955 48.9164C60.4194 48.9164 59.9102 48.6285 59.9102 48.1747C59.9102 47.8868 60.1033 47.6512 60.4546 47.5813C60.2438 47.4941 60.1209 47.337 60.1209 47.1625ZM60.3667 48.0875C60.3667 48.358 60.6916 48.5587 61.1746 48.5587C61.6575 48.5587 62.0351 48.3492 62.0351 48.0438C62.0351 47.7646 61.7804 47.7035 61.2711 47.7035C61.1131 47.7035 60.9199 47.6948 60.8058 47.6773C60.5511 47.7471 60.3667 47.8955 60.3667 48.0875ZM61.1833 46.4557C61.517 46.4557 61.7277 46.2201 61.7277 45.8623C61.7277 45.5307 61.5346 45.2951 61.1394 45.2951C60.8058 45.2951 60.5775 45.5395 60.5775 45.8972C60.5863 46.2288 60.8146 46.4557 61.1833 46.4557Z" fill="black"/>
<path d="M63.1501 44.4504C62.9394 44.4504 62.8516 44.2933 62.8516 44.1276C62.8516 43.9618 62.9482 43.8047 63.1501 43.8047C63.3609 43.8047 63.4487 43.9618 63.4487 44.1276C63.4487 44.2933 63.3609 44.4504 63.1501 44.4504ZM62.9218 47.5569V45.0089L63.3784 44.9391V47.5569H62.9218Z" fill="black"/>
<path d="M65.2222 47.5558H64.8008L63.791 45.0078H64.2827L65.0291 46.9799L65.7403 45.0078H66.2232L65.2222 47.5558Z" fill="black"/>
<path d="M66.863 44.4504C66.6523 44.4504 66.5645 44.2933 66.5645 44.1276C66.5645 43.9618 66.661 43.8047 66.863 43.8047C67.0649 43.8047 67.1615 43.9618 67.1615 44.1276C67.1615 44.2933 67.0737 44.4504 66.863 44.4504ZM66.6347 47.5569V45.0089L67.0913 44.9391V47.5569H66.6347Z" fill="black"/>
<path d="M69.5414 47.5553V45.9584C69.5414 45.5221 69.3746 45.3738 69.0146 45.3738C68.7511 45.3738 68.4877 45.5134 68.3472 45.653V47.5553H67.8906V45.0073L68.3472 44.9375V45.3214C68.5843 45.0858 68.8829 44.9375 69.1814 44.9375C69.6995 44.9375 70.0068 45.2604 70.0068 45.8101V47.5553H69.5414Z" fill="black"/>
<path d="M70.6209 47.1625C70.6209 46.9531 70.7877 46.7611 71.0424 46.6651C70.7789 46.5081 70.6209 46.2288 70.6209 45.8798C70.6209 45.3824 70.9984 44.9199 71.657 44.9199C71.9292 44.9199 72.1575 44.9897 72.3155 45.0683L72.9741 45.0072L72.9916 45.4522L72.4999 45.365C72.5965 45.4609 72.6755 45.6965 72.6755 45.8885C72.6755 46.3946 72.2541 46.8222 71.657 46.8222C71.5253 46.8222 71.4463 46.8047 71.297 46.7611C71.1916 46.796 71.0424 46.9007 71.0424 47.0229C71.0424 47.1712 71.1389 47.2585 71.6219 47.2585C71.6219 47.2585 71.9116 47.2585 71.8589 47.2585C72.6229 47.2585 72.9741 47.4941 72.9741 47.9391C72.9741 48.4976 72.3682 48.9164 71.5955 48.9164C70.9194 48.9164 70.4102 48.6285 70.4102 48.1747C70.4102 47.8868 70.6033 47.6512 70.9545 47.5813C70.7438 47.4941 70.6209 47.337 70.6209 47.1625ZM70.8667 48.0875C70.8667 48.358 71.1916 48.5587 71.6746 48.5587C72.1575 48.5587 72.535 48.3492 72.535 48.0438C72.535 47.7646 72.2804 47.7035 71.7711 47.7035C71.6131 47.7035 71.4199 47.6948 71.3058 47.6773C71.0511 47.7471 70.8667 47.8955 70.8667 48.0875ZM71.6746 46.4557C72.0082 46.4557 72.2189 46.2201 72.2189 45.8623C72.2189 45.5307 72.0258 45.2951 71.6306 45.2951C71.297 45.2951 71.0687 45.5395 71.0687 45.8972C71.0775 46.2288 71.3058 46.4557 71.6746 46.4557Z" fill="black"/>
<path d="M77.8915 47.5553V45.9672C77.8915 45.5221 77.7334 45.3651 77.3997 45.3651C77.1188 45.3651 76.8992 45.5134 76.75 45.653V45.8101V47.5553H76.2934V45.9672C76.2934 45.5221 76.1353 45.3651 75.8017 45.3651C75.5207 45.3651 75.3012 45.4872 75.1519 45.6269V47.5553H74.6953V45.0073L75.1519 44.9375C75.1519 44.9375 75.1519 45.2604 75.1519 45.2865C75.3978 45.0509 75.6612 44.9375 75.9685 44.9375C76.267 44.9375 76.5129 45.0771 76.6358 45.3563C76.908 45.0858 77.2066 44.9375 77.5578 44.9375C78.0232 44.9375 78.3305 45.2604 78.3305 45.8276V47.5553H77.8915Z" fill="black"/>
<path d="M80.4214 47.277C80.2282 47.5039 79.9911 47.6348 79.7189 47.6348C79.236 47.6348 78.9023 47.3206 78.9023 46.9105C78.9023 46.4567 79.2272 46.0553 80.4214 46.003V45.9332C80.4214 45.5231 80.2633 45.3573 79.8506 45.3573C79.5872 45.3573 79.2623 45.4794 79.0253 45.6365L78.9375 45.2264C79.157 45.0693 79.5345 44.9297 79.8946 44.9297C80.5882 44.9297 80.8955 45.2264 80.878 45.9157V46.9803C80.878 47.1897 80.9043 47.2334 81.1326 47.2334L81.1063 47.6173C80.6936 47.6522 80.5092 47.5039 80.4389 47.2857H80.4214V47.277ZM80.4302 46.2909C79.675 46.3869 79.3941 46.544 79.3941 46.8581C79.3941 47.085 79.5697 47.2508 79.8419 47.2508C80.0789 47.2508 80.2809 47.1374 80.4302 46.9803V46.2909Z" fill="black"/>
<path d="M83.3176 43.812L83.7742 43.7422V47.5555H83.3176C83.3176 47.5555 83.3176 47.346 83.3176 47.3199C83.1332 47.4944 82.9049 47.634 82.6063 47.634C81.8863 47.634 81.4648 47.0581 81.4648 46.2902C81.4648 45.5223 82.0005 44.9289 82.7644 44.9289C82.9488 44.9289 83.1507 44.9638 83.3176 45.0162V43.812ZM82.7468 45.339C82.2288 45.339 81.939 45.7579 81.939 46.2815C81.939 46.8399 82.22 47.2151 82.6941 47.2151C82.9312 47.2151 83.142 47.1192 83.3176 46.9708C83.3176 46.997 83.3176 45.5223 83.3176 45.5223C83.1683 45.4001 82.9663 45.339 82.7468 45.339Z" fill="black"/>
<path d="M84.8628 46.3607C84.8804 46.8581 85.2141 47.2159 85.7058 47.2159C85.9692 47.2159 86.2677 47.1461 86.4697 47.0065L86.5575 47.4253C86.3292 47.5649 86.0219 47.6348 85.697 47.6348C84.9243 47.6348 84.4062 47.085 84.4062 46.3084C84.4062 45.4882 84.9506 44.9297 85.6707 44.9297C86.2941 44.9297 86.6453 45.3136 86.6453 45.9244C86.6453 46.0641 86.619 46.2211 86.5926 46.3258C86.5838 46.3258 84.8716 46.3346 84.8716 46.3346V46.3607H84.8628ZM86.1975 45.9943V45.9594C86.1975 45.5841 86.0219 45.3311 85.618 45.3311C85.1789 45.3311 84.9243 45.6714 84.8892 46.0117L86.1975 45.9943Z" fill="black"/>
<path d="M88.816 46.3607C88.8335 46.8581 89.1672 47.2159 89.6589 47.2159C89.9223 47.2159 90.2209 47.1461 90.4228 47.0065L90.5106 47.4253C90.2823 47.5649 89.975 47.6348 89.6501 47.6348C88.8774 47.6348 88.3594 47.085 88.3594 46.3084C88.3594 45.4882 88.9038 44.9297 89.6238 44.9297C90.2472 44.9297 90.5984 45.3136 90.5984 45.9244C90.5984 46.0641 90.5721 46.2211 90.5457 46.3258C90.537 46.3258 88.8247 46.3346 88.8247 46.3346V46.3607H88.816ZM90.1506 45.9943V45.9594C90.1506 45.5841 89.975 45.3311 89.5711 45.3311C89.1321 45.3311 88.8774 45.6714 88.8423 46.0117L90.1506 45.9943Z" fill="black"/>
<path d="M92.5034 47.277C92.3102 47.5039 92.0732 47.6348 91.801 47.6348C91.318 47.6348 90.9844 47.3206 90.9844 46.9105C90.9844 46.4567 91.3093 46.0553 92.5034 46.003V45.9332C92.5034 45.5231 92.3454 45.3573 91.9327 45.3573C91.6693 45.3573 91.3444 45.4794 91.1073 45.6365L91.0195 45.2264C91.239 45.0693 91.6166 44.9297 91.9766 44.9297C92.6703 44.9297 92.9776 45.2264 92.96 45.9157V46.9803C92.96 47.1897 92.9864 47.2334 93.2146 47.2334L93.1883 47.6173C92.7756 47.6522 92.5912 47.5039 92.521 47.2857H92.5034V47.277ZM92.5034 46.2909C91.7483 46.3869 91.4673 46.544 91.4673 46.8581C91.4673 47.085 91.6429 47.2508 91.9151 47.2508C92.1522 47.2508 92.3542 47.1374 92.5034 46.9803V46.2909Z" fill="black"/>
<path d="M94.382 47.6426C94.0659 47.6426 93.7234 47.5466 93.4863 47.407L93.6005 46.9881C93.8112 47.1365 94.1273 47.2237 94.3907 47.2237C94.6805 47.2237 94.9 47.0928 94.9 46.8659C94.9 46.6129 94.6015 46.5256 94.2941 46.4471C93.9341 46.3511 93.539 46.1679 93.539 45.7054C93.539 45.2342 93.9429 44.9375 94.4522 44.9375C94.7507 44.9375 95.0405 45.0073 95.2776 45.1295L95.1634 45.5483C94.9527 45.4349 94.6454 45.3563 94.4346 45.3563C94.1624 45.3563 93.9868 45.4698 93.9868 45.6705C93.9868 45.9148 94.259 45.9933 94.5751 46.0806C94.9527 46.1766 95.3478 46.3598 95.3478 46.8398C95.3478 47.311 94.9351 47.6426 94.382 47.6426Z" fill="black"/>
<path d="M96.9809 47.583L96.8053 48.0368C96.5594 48.6825 96.3048 48.8745 95.9096 48.8745C95.7165 48.8745 95.5408 48.8221 95.3652 48.7436L95.4969 48.3247C95.6287 48.3945 95.7779 48.4469 95.9008 48.4469C96.094 48.4469 96.217 48.3422 96.3926 47.8972L96.5506 47.5045L95.5584 45.0176H96.0501L96.7965 46.9897L97.5165 45.0176H97.9994L96.9809 47.583Z" fill="black"/>
<path d="M17.6838 52.1125C17.6838 53.7094 16.3843 55.0008 14.7775 55.0008C13.1706 55.0008 11.8711 53.7094 11.8711 52.1125V42.6012C11.8711 41.0043 13.1706 39.7129 14.7775 39.7129C16.3843 39.7129 17.6838 41.0043 17.6838 42.6012V52.1125Z" fill="#165916"/>
<path d="M15.762 3.98781V2.10684e-05C15.762 2.10684e-05 23.4801 -0.069787 25.4382 7.82725C27.3962 15.7243 25.526 33.2025 16.8157 33.5166C8.10533 33.8395 4.41749 13.8744 6.72678 9.13615C9.2468 3.92672 14.1288 3.92672 15.762 3.98781Z" fill="#931C1C"/>
<path d="M18.65 40.7339C21.6091 43.5611 25.0511 47.0777 25.1213 47.165C25.2881 47.3569 27.7116 50.2452 21.4598 48.8578C16.8412 47.8281 14.7778 43.6047 14.7778 43.6047C14.7778 43.6047 12.7144 47.8281 8.09579 48.8578C1.8528 50.2452 4.26746 47.3657 4.43429 47.165C4.50453 47.0777 7.94652 43.5611 10.8968 40.7339C6.85773 39.5559 4.31136 37.5227 2.70452 35.3761C-0.254536 31.4145 -0.0086799 27.0777 -0.0086799 27.0777V7.82812C19.3086 9.27664 19.7213 25.9084 19.7476 29.3814C21.8286 29.137 21.6618 27.2609 21.6618 27.2609V7.82812H29.5379V27.069C29.5379 27.069 29.7838 31.4058 26.8247 35.3674C25.2442 37.5227 22.6891 39.5559 18.65 40.7339Z" fill="#D33520"/>
<path d="M25.1219 47.1638C25.2887 47.3558 27.7121 50.2441 21.4604 48.8567C16.8418 47.827 14.7784 43.6036 14.7784 43.6036C14.7784 43.6036 12.7149 47.827 8.09635 48.8567C1.85336 50.2441 4.26802 47.3645 4.43485 47.1638C4.5051 47.0766 7.94708 43.56 10.8974 40.7328C6.85829 39.5548 4.31192 37.5216 2.70508 35.375H26.8341C25.2272 37.5216 22.6809 39.5635 18.6418 40.7328C21.6096 43.56 25.0516 47.0766 25.1219 47.1638Z" fill="#22841A"/>
</svg>
