<svg width="30" height="30" viewBox="0 0 30 30" fill="none" xmlns="http://www.w3.org/2000/svg">
<path d="M27.9375 26.3906H2.0625C1.44023 26.3906 0.9375 26.8934 0.9375 27.5156V28.7812C0.9375 28.9359 1.06406 29.0625 1.21875 29.0625H28.7812C28.9359 29.0625 29.0625 28.9359 29.0625 28.7812V27.5156C29.0625 26.8934 28.5598 26.3906 27.9375 26.3906ZM6.05977 23.4375C6.13008 23.4375 6.20039 23.4305 6.2707 23.4199L12.184 22.3828C12.2543 22.3687 12.3211 22.3371 12.3703 22.2844L27.273 7.38164C27.3056 7.34912 27.3315 7.31048 27.3491 7.26795C27.3668 7.22542 27.3759 7.17983 27.3759 7.13379C27.3759 7.08775 27.3668 7.04215 27.3491 6.99962C27.3315 6.95709 27.3056 6.91846 27.273 6.88594L21.4301 1.03945C21.3633 0.972656 21.2754 0.9375 21.1805 0.9375C21.0855 0.9375 20.9977 0.972656 20.9309 1.03945L6.02812 15.9422C5.97539 15.9949 5.94375 16.0582 5.92969 16.1285L4.89258 22.0418C4.85838 22.2301 4.8706 22.424 4.92818 22.6065C4.98576 22.7891 5.08697 22.9548 5.22305 23.0895C5.45508 23.3145 5.74688 23.4375 6.05977 23.4375Z" fill="#42A44C" fillOpacity="0.86"/>
</svg>
