<svg height="512" viewBox="0 0 128 128" width="512" xmlns="http://www.w3.org/2000/svg"><g id="Layer_1"><path d="m92.233 51.512c-.651-.099-1.31.066-1.84.452-2.58 1.88-5.575 2.989-8.739 3.255.311-.759.561-1.547.774-2.351 8.582-1.121 15.268-8.518 15.268-17.359 0-9.663-7.866-17.524-17.534-17.524-7.135 0-13.518 4.376-16.185 10.849-.018 0-.035-.003-.052-.003-.01 0-.02.002-.031.002-2.675-6.472-9.066-10.848-16.202-10.848-9.663 0-17.524 7.861-17.524 17.524 0 8.838 6.68 16.235 15.253 17.358.212.804.463 1.592.774 2.351-3.162-.269-6.163-1.384-8.752-3.273-.522-.381-1.173-.544-1.812-.458-11.621 1.586-19.811 11.24-19.086 22.476v8.109c0 .462.128.915.37 1.309 1.807 2.94 6.087 5.149 12.72 6.582.008.215.012.429.026.645v8.994c0 .463.128.917.372 1.311 4.438 7.205 21.882 9.092 34.39 9.092 1.799 0 3.498-.039 5.039-.107 7.399-.327 25.003-1.874 28.657-9.178.174-.347.264-.73.264-1.119v-9.076c0-.162-.019-.32-.022-.481 6.989-1.462 11.322-3.761 12.873-6.852.175-.348.266-.732.266-1.121v-8.191c0-11.119-8.283-20.735-19.267-22.368zm-42.464-3.523c0-7.806 6.35-14.157 14.157-14.157 7.806 0 14.157 6.351 14.157 14.157s-6.351 14.157-14.157 14.157c-7.807 0-14.157-6.351-14.157-14.157zm30.393-25.003c6.911 0 12.534 5.618 12.534 12.524 0 5.869-4.127 10.845-9.63 12.165-.141-8.613-5.987-15.848-13.919-18.101 2.145-3.977 6.355-6.588 11.015-6.588zm-44.993 12.524c0-6.906 5.618-12.524 12.524-12.524 4.66 0 8.875 2.609 11.028 6.584-7.941 2.247-13.795 9.486-13.937 18.104-5.495-1.323-9.615-6.297-9.615-12.164zm58.214 63.39c-2.004 2.605-10.636 5.408-24.142 6.003-15.927.708-31.039-2.01-34.581-6.109v-8.267c0-.057-.002-.113-.006-.169-.637-9.395 6.043-17.528 15.667-19.282 4.035 2.689 8.715 4.105 13.603 4.105 4.866 0 9.528-1.404 13.55-4.071 9.134 1.824 15.908 10.005 15.908 19.417v8.373zm13.117-17.553c-.943 1.135-3.66 2.604-8.758 3.721-2.236-9.755-10.285-17.555-20.482-19.069-.647-.098-1.308.066-1.837.451-3.357 2.441-7.333 3.731-11.497 3.731-4.177 0-8.163-1.297-11.526-3.752-.522-.381-1.169-.544-1.812-.457-10.722 1.462-18.782 9.195-20.591 18.955-5.486-1.269-7.637-2.823-8.451-3.69v-7.357c0-.057-.002-.114-.006-.171-.57-8.312 5.323-15.517 13.833-17.116 3.664 2.419 7.901 3.693 12.32 3.693.505 0 1.012-.018 1.515-.053 3.517 4.22 8.807 6.913 14.717 6.913s11.201-2.693 14.717-6.913c.505.035 1.013.053 1.519.053 4.411 0 8.634-1.262 12.281-3.661 8.079 1.662 14.057 8.916 14.057 17.255v7.467z"/></g></svg>