<svg height="512" viewBox="0 0 64 64" width="512" xmlns="http://www.w3.org/2000/svg"><g id="Blogger-Writer-Pencil-Browser-Blogging"><path d="m8 6h2v2h-2z"/><path d="m12 6h2v2h-2z"/><path d="m16 6h2v2h-2z"/><path d="m9 28h16a1 1 0 0 0 1-1v-10a1 1 0 0 0 -1-1h-16a1 1 0 0 0 -1 1v10a1 1 0 0 0 1 1zm1-10h14v8h-14z"/><path d="m34 17h16v2h-16z"/><path d="m30 21h18v2h-18z"/><path d="m30 25h14v2h-14z"/><path d="m12 32h26v2h-26z"/><path d="m8 36h26v2h-26z"/><path d="m8 40h22v2h-22z"/><path d="m8 44h22v2h-22z"/><path d="m8 48h22v2h-22z"/><path d="m8 32h2v2h-2z"/><path d="m57 8h-1v-1a5 5 0 0 0 -5-5h-44a5 5 0 0 0 -5 5v44a5 5 0 0 0 5 5h1v1a5 5 0 0 0 5 5h44a5 5 0 0 0 5-5v-44a5 5 0 0 0 -5-5zm-1.79 15.54 4.25 4.25-2.83 2.83-4.25-4.25zm-18.08 20.11.79-2.05 3.48 3.48-2.05.79zm.18 3-1.57.61.61-1.57zm3.05-5.43-1.41-1.41 12.02-12.02 1.41 1.41zm13.44-10.6 1.41 1.41-12.02 12.02-1.41-1.41zm-49.8-23.62a3.009 3.009 0 0 1 3-3h44a3.009 3.009 0 0 1 3 3v3h-50zm3 47a3.009 3.009 0 0 1 -3-3v-39h50v9.93l-17.17 17.17a1.014 1.014 0 0 0 -.23.35l-3.53 9.19a.988.988 0 0 0 .22 1.07 1.007 1.007 0 0 0 .71.29.922.922 0 0 0 .36-.07l9.19-3.53a1.014 1.014 0 0 0 .35-.23l10.1-10.1v14.93a3.009 3.009 0 0 1 -3 3zm53 3a3.009 3.009 0 0 1 -3 3h-44a3.009 3.009 0 0 1 -3-3v-1h41a5 5 0 0 0 5-5v-16.93l4-4zm0-31.5-4-4v-3.5h4zm0-9.5h-4v-6h1a3.009 3.009 0 0 1 3 3z"/><path d="m30 17h2v2h-2z"/></g></svg>